<svg width="39" height="39" viewBox="0 0 39 39" fill="none" xmlns="http://www.w3.org/2000/svg">
<circle cx="19.5" cy="19.3063" r="19.3063" fill="#15AE24"/>
<g clip-path="url(#clip0_12_4)">
<path d="M29.0296 8.59542C29.0162 8.36937 28.9203 8.15609 28.7602 7.99597C28.6001 7.83585 28.3868 7.74002 28.1608 7.72664C24.0536 7.48459 20.745 8.7573 19.308 11.1293C18.3722 12.671 18.3398 14.5342 19.1955 16.3173C18.8295 16.7839 18.5373 17.3038 18.329 17.859L17.5813 17.1113C18.1355 15.8185 18.077 14.4818 17.3963 13.3579C16.3186 11.5795 13.8641 10.6267 10.8315 10.8024C10.6055 10.8158 10.3922 10.9116 10.232 11.0718C10.0719 11.2319 9.9761 11.4452 9.96272 11.6712C9.78696 14.7038 10.7398 17.1583 12.5197 18.236C13.1234 18.6039 13.817 18.7979 14.524 18.7964C15.1267 18.7915 15.7222 18.6637 16.2739 18.421L17.9582 20.1084V22.1898C17.9582 22.4351 18.0557 22.6704 18.2292 22.8439C18.4027 23.0174 18.638 23.1149 18.8833 23.1149C19.1286 23.1149 19.3639 23.0174 19.5374 22.8439C19.7109 22.6704 19.8083 22.4351 19.8083 22.1898V19.9165C19.8064 19.0896 20.0621 18.2826 20.5399 17.6077C21.3133 17.9755 22.1573 18.1712 23.0136 18.1813C23.9353 18.1834 24.8396 17.9311 25.6269 17.452C27.9989 16.0112 29.2716 12.7019 29.0296 8.59542ZM13.4779 16.6534C12.4611 16.0367 11.8452 14.5366 11.7951 12.6348C13.6968 12.6849 15.1977 13.3016 15.8137 14.3176C16.0545 14.7094 16.1533 15.1721 16.0935 15.6281L15.2201 14.7516C15.0463 14.5778 14.8106 14.4802 14.5648 14.4802C14.3191 14.4802 14.0834 14.5778 13.9096 14.7516C13.7358 14.9254 13.6382 15.1611 13.6382 15.4069C13.6382 15.6526 13.7358 15.8883 13.9096 16.0621L14.7838 16.9363C14.329 16.9924 13.8687 16.8927 13.4779 16.6534ZM24.6687 15.8686C23.847 16.3658 22.8957 16.4599 21.9082 16.1585L24.7797 13.2877C24.9535 13.114 25.0511 12.8783 25.0511 12.6325C25.0511 12.3867 24.9535 12.151 24.7797 11.9773C24.6059 11.8035 24.3702 11.7058 24.1245 11.7058C23.8787 11.7058 23.643 11.8035 23.4692 11.9773L20.5977 14.848C20.2994 13.8644 20.3934 12.9092 20.8876 12.0913C21.872 10.4656 24.2023 9.54206 27.2087 9.54745C27.2195 12.5539 26.2945 14.8804 24.6687 15.8686Z" fill="white"/>
</g>
<path fill-rule="evenodd" clip-rule="evenodd" d="M26.948 22.8311C26.9529 22.8259 26.958 22.8208 26.9631 22.8159L18.9278 22.8311H26.948ZM25.0712 23.3498C25.7961 23.2879 26.3781 23.2162 26.7995 23.1384L25.3353 28.041C24.6102 30.4687 22.3772 32.1322 19.8436 32.1322H18.0591C15.5154 32.1322 13.2792 30.4476 12.5774 28.0027L11.1878 23.1616C11.6101 23.2329 12.1701 23.2986 12.8528 23.3556C14.4852 23.4919 16.6866 23.5678 18.976 23.5667C21.2655 23.5657 23.4568 23.4877 25.0712 23.3498ZM10.264 22.8359C10.249 22.6427 11.1297 22.4567 12.7167 22.3181C14.3129 22.1788 16.4939 22.0987 18.783 22.0955C21.0722 22.0922 23.2835 22.166 24.9336 22.3008C26.2321 22.4068 27.1001 22.5438 27.4359 22.6921C27.4415 22.6936 27.4471 22.6951 27.4527 22.6968C27.7174 22.7756 27.8681 23.0542 27.789 23.3189L24.9322 32.8843C24.9191 32.9282 24.8729 32.9532 24.829 32.9401C24.7758 32.9243 24.7224 32.9641 24.7224 33.0196V33.0366C24.7224 33.0894 24.6796 33.1322 24.6267 33.1322L13.2382 33.1322C13.1927 33.1322 13.1558 33.0953 13.1558 33.0498C13.1558 32.995 13.1028 32.9556 13.0501 32.9707C13.0059 32.9834 12.9594 32.958 12.9467 32.9138L10.1806 23.2775C10.1353 23.1194 10.1713 22.9573 10.264 22.8359Z" fill="white"/>
<defs>
<clipPath id="clip0_12_4">
<rect width="19.7344" height="19.7344" fill="white" transform="translate(9.63279 5.53891)"/>
</clipPath>
</defs>
</svg>
